<?xml version="1.0" standalone="no"?>
<!DOCTYPE svg PUBLIC "-//W3C//DTD SVG 20010904//EN"
 "http://www.w3.org/TR/2001/REC-SVG-20010904/DTD/svg10.dtd">
<svg version="1.0" xmlns="http://www.w3.org/2000/svg"
 width="64.000000pt" height="64.000000pt" viewBox="0 0 64.000000 64.000000"
 preserveAspectRatio="xMidYMid meet">

<g transform="translate(0.000000,64.000000) scale(0.100000,-0.100000)"
fill="#000000" stroke="none">
<path d="M335 550 c-11 -5 -62 -9 -112 -9 -55 -1 -93 -5 -93 -11 0 -6 29 -10
68 -10 l67 -1 -24 -20 c-35 -29 -18 -35 21 -6 71 52 153 61 233 23 60 -28 77
-46 106 -110 75 -171 -89 -349 -272 -295 -117 35 -182 180 -134 296 16 37 12
59 -6 33 -19 -31 -31 -97 -26 -146 6 -62 24 -99 68 -142 l33 -32 -67 0 c-105
0 -78 -18 36 -24 56 -3 121 -8 145 -12 128 -19 262 101 262 236 0 92 -80 202
-166 228 -47 14 -110 15 -139 2z"/>
<path d="M347 500 c-137 -43 -178 -209 -77 -310 68 -68 168 -74 246 -15 35 27
67 87 61 113 -2 12 -9 4 -21 -23 -23 -54 -43 -74 -95 -97 -65 -30 -124 -18
-177 35 -72 72 -69 173 5 240 93 84 235 41 272 -83 15 -50 31 -43 17 8 -21 77
-79 125 -164 136 -21 3 -52 1 -67 -4z"/>
<path d="M45 460 c3 -5 28 -10 55 -10 27 0 52 5 55 10 4 6 -17 10 -55 10 -38
0 -59 -4 -55 -10z"/>
<path d="M390 444 c0 -8 5 -12 10 -9 6 3 10 10 10 16 0 5 -4 9 -10 9 -5 0 -10
-7 -10 -16z"/>
<path d="M295 410 c3 -5 10 -10 16 -10 5 0 9 5 9 10 0 6 -7 10 -16 10 -8 0
-12 -4 -9 -10z"/>
<path d="M480 410 c0 -5 5 -10 10 -10 6 0 10 5 10 10 0 6 -4 10 -10 10 -5 0
-10 -4 -10 -10z"/>
<path d="M100 400 c0 -5 11 -10 25 -10 14 0 25 5 25 10 0 6 -11 10 -25 10 -14
0 -25 -4 -25 -10z"/>
<path d="M390 361 c0 -50 1 -51 30 -51 17 0 30 5 30 10 0 6 -9 10 -20 10 -16
0 -20 7 -20 34 0 19 -4 38 -10 41 -6 4 -10 -13 -10 -44z"/>
<path d="M5 350 c8 -13 105 -13 105 0 0 6 -25 10 -56 10 -34 0 -53 -4 -49 -10z"/>
<path d="M260 320 c0 -5 5 -10 10 -10 6 0 10 5 10 10 0 6 -4 10 -10 10 -5 0
-10 -4 -10 -10z"/>
<path d="M520 320 c0 -5 5 -10 10 -10 6 0 10 5 10 10 0 6 -4 10 -10 10 -5 0
-10 -4 -10 -10z"/>
<path d="M5 290 c-4 -6 15 -10 49 -10 31 0 56 5 56 10 0 13 -97 13 -105 0z"/>
<path d="M100 240 c0 -5 11 -10 25 -10 14 0 25 5 25 10 0 6 -11 10 -25 10 -14
0 -25 -4 -25 -10z"/>
<path d="M295 230 c-3 -5 1 -10 9 -10 9 0 16 5 16 10 0 6 -4 10 -9 10 -6 0
-13 -4 -16 -10z"/>
<path d="M480 230 c0 -5 5 -10 10 -10 6 0 10 5 10 10 0 6 -4 10 -10 10 -5 0
-10 -4 -10 -10z"/>
<path d="M390 190 c0 -5 5 -10 10 -10 6 0 10 5 10 10 0 6 -4 10 -10 10 -5 0
-10 -4 -10 -10z"/>
<path d="M45 180 c-4 -6 17 -10 55 -10 38 0 59 4 55 10 -3 6 -28 10 -55 10
-27 0 -52 -4 -55 -10z"/>
</g>
</svg>
