<svg width="280" height="218" viewBox="0 0 280 218" fill="none" xmlns="http://www.w3.org/2000/svg">
<path d="M215.632 96.8822C215.252 98.8613 214.798 100.82 214.267 102.759C214.21 102.984 211.925 112.275 211.86 112.5L214.267 102.759C211.984 112 212.018 111.863 211.86 112.5C211.703 113.137 208.861 117.876 208.86 118.5L204.334 126.656C204.11 127.069 203.884 127.479 203.657 127.889C202.485 130.006 201.266 132.099 200.021 134.166C179.705 167.751 151.369 195.857 117.516 216L119.521 211.511C118.786 211.461 118.048 211.41 117.313 211.36C101.316 210.274 85.2649 209.072 69.6435 205.503C53.3011 201.77 37.3143 195.295 24.5065 184.56C11.6951 173.821 2.3035 158.486 1 141.894C0.565353 136.191 1.14644 130.458 2.71662 124.956C5.71954 114.365 12.281 104.836 21.7472 99.1973C36.6168 90.3435 56.0131 92.1479 71.6885 99.5132C87.3605 106.875 100.118 119.062 112.573 131.037C99.9975 109.635 82.4878 91.496 61.4809 78.1095C54.52 73.6877 47.1326 69.7497 41.2146 64.0207C35.2998 58.2952 30.9357 50.268 31.982 42.1333C33.1702 32.9065 40.7846 25.9041 48.4123 20.5045C51.4594 18.3473 54.6046 16.3011 57.8481 14.4194C66.9994 9.09707 76.899 5.08178 87.3538 3.59327C101.516 1.57387 116.812 4.63826 127.67 13.8852C139.902 24.3047 144.919 41.1084 144.442 57.183C151.979 46.3098 163.601 37.9869 176.727 37.6341C190.355 37.2712 203.308 45.8159 210.133 57.5291C216.956 69.2389 218.181 83.5932 215.632 96.8822Z" fill="#00627B" fill-opacity="0.29"/>
<path d="M128.743 142.034C136.674 141.336 144.001 140.521 151.686 138.349C159.135 136.244 166.304 132.72 171.607 126.965C177.311 120.776 180.39 112.738 182.562 104.736C183.773 100.274 184.768 95.7506 185.707 91.2254C186.726 86.3155 187.632 81.3839 188.423 76.4305C189.999 66.5708 191.124 56.653 191.799 46.6772C191.88 45.4663 191.955 44.2549 192.023 43.0431C192.065 42.2956 190.901 42.298 190.859 43.0431C190.305 52.8765 189.308 62.6715 187.87 72.4282C186.45 82.014 184.633 91.5584 182.328 100.972C180.375 108.948 177.847 117.047 172.839 123.686C168.143 129.912 161.36 133.98 154.036 136.413C146.583 138.888 138.725 139.876 130.938 140.611C129.982 140.701 129.699 140.787 128.743 140.871C128.003 140.936 127.996 142.1 128.743 142.034L128.743 142.034Z" fill="white"/>
<path d="M3.52022 125.808C13.5265 126.362 23.4311 128.105 33.0244 131C42.6218 133.89 51.8446 137.899 60.5018 142.946C68.8668 147.826 76.6324 153.665 83.6406 160.345C90.4422 166.832 96.5041 174.051 101.715 181.87C106.951 189.708 111.289 198.108 114.649 206.912C115.059 207.99 115.454 209.073 115.834 210.161C116.079 210.863 117.204 210.561 116.956 209.852C113.812 200.862 109.667 192.253 104.6 184.187C99.5335 176.12 93.5874 168.638 86.8706 161.88C80.0462 155.016 72.4511 148.963 64.2362 143.84C46.9877 133.109 27.4366 126.617 7.18834 124.898C5.96693 124.796 4.74423 124.711 3.52023 124.645C2.7717 124.605 2.774 125.767 3.52023 125.808L3.52022 125.808Z" fill="white"/>
<path d="M57.9453 15.7817C64.3432 17.8139 70.4075 20.7735 75.9441 24.5659C81.6016 28.4676 86.7614 33.044 91.309 38.1938C96.1013 43.6113 100.362 49.4756 104.032 55.7061C107.925 62.2847 111.307 69.1518 114.148 76.2471C117.074 83.5316 119.535 90.9938 121.515 98.589C123.529 106.274 125.102 114.068 126.226 121.932C127.345 129.713 128.022 137.551 128.254 145.408C128.488 152.921 128.265 160.441 127.588 167.927C126.968 174.912 125.837 181.841 124.203 188.66C122.751 194.819 120.706 200.823 118.095 206.588C117.49 207.896 116.848 209.186 116.17 210.458C115.818 211.118 116.822 211.706 117.175 211.045C120.06 205.539 122.364 199.748 124.049 193.765C125.94 187.106 127.311 180.309 128.149 173.438C129.078 165.983 129.53 158.476 129.503 150.964C129.487 143.071 129.016 135.186 128.094 127.347C127.172 119.411 125.803 111.533 123.993 103.75C122.188 95.9547 119.898 88.2792 117.137 80.7684C114.475 73.4975 111.289 66.4292 107.602 59.6193C104.091 53.1209 99.999 46.9527 95.3763 41.1898C90.9862 35.7026 85.9742 30.7421 80.4406 26.4074C75.1047 22.2401 69.2083 18.8433 62.9249 16.3167C61.3894 15.7063 59.8327 15.1543 58.2547 14.6607C57.5385 14.4356 57.232 15.5576 57.9453 15.7817H57.9453Z" fill="white"/>
<path d="M132 218C184.467 218 227 216.433 227 214.5C227 212.567 184.467 211 132 211C79.5329 211 37 212.567 37 214.5C37 216.433 79.5329 218 132 218Z" fill="#00627B" fill-opacity="0.29"/>
<path d="M40.1216 205.948C40.3531 205.956 40.5815 205.893 40.776 205.766C40.9705 205.64 41.1216 205.456 41.2089 205.241C41.2963 205.025 41.3155 204.787 41.2641 204.56C41.2127 204.333 41.0931 204.127 40.9216 203.971C40.892 203.857 40.8708 203.776 40.8412 203.662C41.0573 203.094 41.437 202.604 41.9317 202.255C42.4264 201.906 43.0136 201.713 43.6179 201.701C44.2223 201.69 44.8163 201.86 45.3238 202.19C45.8313 202.52 46.2292 202.996 46.4665 203.555C47.8349 206.693 49.5983 209.939 48.7695 213.419C54.3457 201.233 52.2675 186.16 43.7586 175.866C41.4216 174.6 39.5157 172.33 39 169.677C40.1543 170.058 41.5799 169.103 40.7032 167.892C40.3239 167.43 39.9409 166.971 39.5615 166.509C43.8878 161.785 49.1649 169.094 44.414 175.459C46.0065 177.428 47.39 179.56 48.5418 181.819C48.2579 179.411 48.5464 176.97 49.3835 174.696C50.2336 172.577 51.8476 170.783 53.2665 168.944C54.9916 166.704 58.5952 167.695 58.8569 170.515C57.2504 171.063 57.0632 173.407 58.9096 173.709C58.4765 178.964 55.1121 183.822 50.4373 186.169C52.218 191.047 52.9447 196.251 52.5686 201.434C53.3404 195.374 59.7858 193.843 64.2778 191.394C64.5633 191.206 64.8972 191.106 65.2386 191.105C65.5799 191.105 65.9141 191.204 66.2003 191.391C66.4864 191.579 66.7122 191.845 66.8501 192.16C66.988 192.474 67.032 192.821 66.9768 193.16C66.3561 193.421 65.7627 193.743 65.2053 194.122C64.9441 194.302 64.7448 194.559 64.6346 194.858C64.5244 195.157 64.5088 195.482 64.5898 195.79C64.6709 196.098 64.8446 196.374 65.0873 196.578C65.3299 196.783 65.6296 196.907 65.9452 196.934C63.7231 202.621 57.8754 206.482 51.8324 206.518C51.2757 209.062 50.4577 211.54 49.3915 213.914L40.4226 214C40.3895 213.9 40.3596 213.797 40.3297 213.697C41.1604 213.741 41.9934 213.684 42.81 213.524C40.5889 210.93 38.8779 209.611 40.1216 205.948Z" fill="#00627B" fill-opacity="0.9"/>
<path d="M223.199 209.248C223.033 209.254 222.87 209.209 222.731 209.119C222.592 209.029 222.484 208.897 222.422 208.743C222.36 208.589 222.346 208.419 222.383 208.257C222.419 208.095 222.505 207.948 222.627 207.836C222.649 207.755 222.664 207.697 222.685 207.616C222.53 207.21 222.259 206.86 221.906 206.611C221.553 206.361 221.133 206.223 220.701 206.215C220.27 206.207 219.845 206.329 219.483 206.564C219.12 206.8 218.836 207.14 218.667 207.539C217.689 209.781 216.43 212.1 217.022 214.585C213.039 205.88 214.523 195.114 220.601 187.761C222.27 186.857 223.632 185.235 224 183.341C223.175 183.613 222.157 182.931 222.783 182.066C223.054 181.736 223.328 181.408 223.599 181.078C220.509 177.704 216.739 182.924 220.133 187.47C218.995 188.877 218.007 190.4 217.184 192.013C217.387 190.294 217.181 188.55 216.583 186.926C215.976 185.412 214.823 184.131 213.81 182.817C212.577 181.217 210.003 181.925 209.816 183.939C210.964 184.331 211.098 186.005 209.779 186.221C210.088 189.974 212.491 193.444 215.83 195.121C214.558 198.605 214.039 202.322 214.308 206.024C213.757 201.695 209.153 200.602 205.944 198.853C205.74 198.719 205.502 198.647 205.258 198.647C205.014 198.646 204.776 198.717 204.571 198.851C204.367 198.985 204.206 199.175 204.107 199.4C204.009 199.624 203.977 199.872 204.017 200.114C204.46 200.301 204.884 200.531 205.282 200.801C205.468 200.93 205.611 201.114 205.69 201.327C205.768 201.541 205.779 201.773 205.722 201.993C205.664 202.213 205.54 202.41 205.366 202.556C205.193 202.702 204.979 202.791 204.753 202.81C206.341 206.872 210.517 209.63 214.834 209.656C215.232 211.473 215.816 213.243 216.577 214.939L222.984 215C223.007 214.929 223.029 214.855 223.05 214.784C222.457 214.815 221.862 214.774 221.278 214.66C222.865 212.807 224.087 211.865 223.199 209.248L223.199 209.248Z" fill="#00627B" fill-opacity="0.9"/>
<circle cx="265" cy="185" r="15" fill="#00627B" fill-opacity="0.29"/>
<path d="M243.373 20C238.041 20.0075 233.994 15.9125 234 10.6269C234 10.2812 234.28 10 234.625 10H236.275C236.584 10 236.847 10.2275 236.893 10.5337C237.002 11.2682 237.216 11.9832 237.527 12.6569L237.592 12.7956C237.635 12.889 237.644 12.9945 237.618 13.094C237.592 13.1935 237.532 13.2807 237.448 13.3406C236.937 13.7056 236.742 14.44 237.14 15.0125C237.641 15.7333 238.267 16.3591 238.987 16.8606C239.561 17.2581 240.295 17.0631 240.659 16.5525C240.719 16.4686 240.806 16.4082 240.906 16.3818C241.006 16.3555 241.111 16.3648 241.205 16.4081L241.343 16.4719C242.017 16.7844 242.732 16.9981 243.466 17.1069C243.772 17.1525 244 17.4156 244 17.7256V19.375C244 19.4571 243.984 19.5384 243.952 19.6143C243.921 19.6902 243.875 19.7591 243.817 19.8172C243.759 19.8752 243.69 19.9212 243.614 19.9526C243.538 19.984 243.456 20.0001 243.374 20H243.373Z" fill="#00627B"/>
<circle cx="239" cy="15" r="14" stroke="#00627B" stroke-width="2"/>
</svg>
