<svg width="341" height="247" viewBox="0 0 341 247" fill="none" xmlns="http://www.w3.org/2000/svg">
<path d="M199.857 127.001C199.504 128.961 199.081 130.902 198.587 132.822C198.534 133.045 198.474 133.265 198.414 133.488L196.347 139.995C196.611 139.005 194.766 143.462 196.347 139.995C195.732 141.294 193.556 140.986 196.347 139.995L189.344 156.495C189.136 156.904 188.924 157.31 188.713 157.716C187.623 159.813 186.489 161.887 185.33 163.934C166.425 197.204 140.057 225.046 108.555 245L110.42 240.553C109.736 240.503 109.05 240.453 108.366 240.403C93.4798 239.328 78.5432 238.137 64.0067 234.602C48.7992 230.904 33.9225 224.49 22.0041 213.855C10.0825 203.217 1.34303 188.026 0.13005 171.59C-0.274413 165.941 0.266323 160.261 1.72746 154.81C4.52185 144.319 10.6277 134.879 19.4365 129.294C33.2735 120.523 51.3228 122.311 65.9096 129.607C80.4933 136.9 92.3645 148.972 103.955 160.835C92.2527 139.633 75.959 121.665 56.4108 108.404C49.9334 104.024 43.059 100.123 37.5519 94.4478C32.0479 88.776 27.9869 80.8242 28.9605 72.7658C30.0662 63.6257 37.1518 56.6891 44.2498 51.3401C47.0853 49.2032 50.0121 47.1762 53.0304 45.3122C61.5461 40.0398 70.7583 36.0622 80.487 34.5877C93.6657 32.5873 107.9 35.6229 118.003 44.783C129.386 55.1047 134.055 71.7506 133.611 87.6742C140.624 76.9032 151.44 68.6584 163.654 68.3089C176.335 67.9494 188.389 76.4139 194.74 88.0171C201.089 99.617 202.229 113.836 199.857 127.001Z" fill="#00627B" fill-opacity="0.25"/>
<path d="M127.743 171.034C135.674 170.336 143.001 169.521 150.686 167.349C158.135 165.244 165.304 161.72 170.607 155.965C176.311 149.776 179.39 141.738 181.562 133.736C182.773 129.274 183.768 124.751 184.708 120.225C185.726 115.315 186.632 110.384 187.423 105.431C188.999 95.5708 190.124 85.653 190.799 75.6772C190.88 74.4663 190.955 73.2549 191.023 72.0431C191.065 71.2956 189.901 71.298 189.859 72.0431C189.305 81.8765 188.308 91.6715 186.87 101.428C185.45 111.014 183.633 120.558 181.328 129.972C179.375 137.948 176.847 146.047 171.839 152.686C167.143 158.912 160.36 162.98 153.036 165.413C145.583 167.888 137.725 168.876 129.938 169.611C128.982 169.701 128.699 169.787 127.743 169.871C127.003 169.936 126.996 171.1 127.743 171.034L127.743 171.034Z" fill="white"/>
<path d="M2.52024 154.808C12.5265 155.362 22.4311 157.105 32.0244 160C41.6218 162.89 50.8446 166.899 59.5018 171.946C67.8668 176.826 75.6324 182.665 82.6406 189.345C89.4423 195.832 95.5041 203.051 100.715 210.87C105.951 218.708 110.289 227.108 113.65 235.912C114.059 236.99 114.454 238.073 114.834 239.161C115.079 239.863 116.204 239.561 115.956 238.852C112.812 229.862 108.667 221.253 103.6 213.187C98.5335 205.12 92.5874 197.638 85.8706 190.88C79.0462 184.016 71.4511 177.963 63.2362 172.84C45.9877 162.109 26.4366 155.617 6.18836 153.898C4.96695 153.796 3.74425 153.711 2.52025 153.645C1.77172 153.605 1.77402 154.767 2.52025 154.808L2.52024 154.808Z" fill="white"/>
<path d="M56.9453 44.7817C63.3432 46.8139 69.4075 49.7735 74.9441 53.5659C80.6017 57.4676 85.7614 62.044 90.3091 67.1938C95.1014 72.6113 99.362 78.4756 103.032 84.7061C106.925 91.2847 110.307 98.1518 113.148 105.247C116.074 112.532 118.535 119.994 120.515 127.589C122.529 135.274 124.102 143.068 125.226 150.932C126.345 158.713 127.022 166.551 127.254 174.408C127.488 181.921 127.265 189.441 126.588 196.927C125.968 203.912 124.837 210.841 123.203 217.66C121.751 223.819 119.706 229.823 117.095 235.588C116.49 236.896 115.848 238.186 115.17 239.458C114.818 240.118 115.822 240.706 116.175 240.045C119.06 234.539 121.364 228.748 123.049 222.765C124.94 216.106 126.311 209.309 127.149 202.438C128.078 194.983 128.53 187.476 128.503 179.964C128.487 172.071 128.016 164.186 127.094 156.347C126.172 148.411 124.803 140.533 122.993 132.75C121.188 124.955 118.898 117.279 116.137 109.768C113.475 102.497 110.289 95.4292 106.602 88.6193C103.091 82.1209 98.9991 75.9527 94.3764 70.1898C89.9863 64.7026 84.9742 59.7421 79.4406 55.4074C74.1047 51.2401 68.2084 47.8433 61.9249 45.3167C60.3894 44.7063 58.8327 44.1543 57.2547 43.6607C56.5385 43.4356 56.232 44.5576 56.9453 44.7817H56.9453Z" fill="white"/>
<path d="M131 247C183.467 247 226 245.433 226 243.5C226 241.567 183.467 240 131 240C78.5329 240 36 241.567 36 243.5C36 245.433 78.5329 247 131 247Z" fill="#00627B" fill-opacity="0.25"/>
<path d="M143.152 235.933L147.142 236.977L153.073 222.104L147.185 220.563L143.152 235.933Z" fill="#FFB8B8"/>
<path d="M153.866 242.691L141.327 239.409L142.596 234.571L150.291 236.584C151.576 236.92 152.674 237.753 153.345 238.898C154.015 240.043 154.203 241.407 153.866 242.691V242.691V242.691Z" fill="#2F2E41"/>
<path d="M178.619 238.77L182.679 238.046L181.814 222.06L175.821 223.129L178.619 238.77Z" fill="#FFB8B8"/>
<path d="M191.183 240.414L178.422 242.691L177.541 237.767L185.372 236.37C186.019 236.254 186.683 236.267 187.325 236.408C187.968 236.549 188.576 236.814 189.116 237.19C189.655 237.565 190.116 238.044 190.47 238.597C190.825 239.15 191.067 239.767 191.183 240.414V240.414V240.414Z" fill="#2F2E41"/>
<path d="M170.624 121.209C171.624 121.452 172.438 122.47 172.927 123.65C173.378 124.889 173.683 126.176 173.837 127.485C174.221 129.923 174.59 132.563 173.795 134.821C172.864 137.468 170.383 138.854 168.231 138.202C166.079 137.551 164.368 135.106 163.783 132.291C163.251 129.447 163.594 126.508 164.767 123.863C165.378 122.473 166.221 121.19 167.34 120.563C167.89 120.231 168.544 120.12 169.173 120.251C169.801 120.381 170.357 120.745 170.728 121.268" fill="#2F2E41"/>
<path d="M176.285 165.354L184.014 234.499L177.63 236.92L165.856 190.553L149.463 232.948L142.475 233.336C142.475 233.336 152.063 167.37 159.168 165.871L176.285 165.354Z" fill="#2F2E41"/>
<path d="M169.792 130.033C174.355 130.033 178.055 126.338 178.055 121.781C178.055 117.223 174.355 113.528 169.792 113.528C165.229 113.528 161.529 117.223 161.529 121.781C161.529 126.338 165.229 130.033 169.792 130.033Z" fill="#FFB8B8"/>
<path d="M167.631 129.283C168.925 128.537 169.063 126.738 168.888 125.255C168.712 123.773 168.418 122.12 169.29 120.908C170.331 119.462 172.423 119.433 174.207 119.386C175.99 119.338 178.162 118.817 178.624 117.096C178.929 115.959 178.276 114.739 177.338 114.025C176.401 113.311 175.228 112.996 174.088 112.696C171.539 112.025 168.906 111.348 166.295 111.717C163.709 112.082 161.371 113.45 159.787 115.524C158.202 117.597 157.499 120.211 157.83 122.798C158.252 126.108 158.865 127.553 158.463 129.013C157.714 131.731 154.483 133.477 154.418 136.296C154.368 138.501 156.318 140.202 158.221 141.321C159.73 142.209 161.358 142.963 163.097 143.17C164.836 143.378 166.709 142.98 168.004 141.803C169.675 140.285 170.088 137.748 169.609 135.543C169.13 133.338 167.901 131.38 166.685 129.479" fill="#2F2E41"/>
<path d="M173.338 133.495L164.409 132.332C164.409 132.332 158.586 139.311 158.974 151.331C159.362 163.35 158.003 167.034 158.003 167.034L176.621 167.37C173.93 163.674 185.187 142.447 173.338 133.495Z" fill="#00627B"/>
<path d="M178.135 169.05C177.949 169.051 177.763 169.067 177.579 169.098L166.156 156.953L167.321 153.075L161.692 150.555L158.198 159.085L174.632 172.142C174.544 172.852 174.674 173.573 175.006 174.208C175.338 174.843 175.855 175.362 176.489 175.696C177.124 176.03 177.845 176.163 178.557 176.078C179.268 175.992 179.938 175.693 180.475 175.219C181.012 174.744 181.392 174.118 181.564 173.423C181.736 172.728 181.692 171.997 181.438 171.327C181.184 170.657 180.732 170.081 180.142 169.674C179.552 169.267 178.852 169.049 178.135 169.05V169.05Z" fill="#FFB8B8"/>
<path d="M199.554 138.404C199.513 138.585 199.486 138.769 199.474 138.955L185.022 147.281L181.509 145.262L177.765 150.158L185.279 155.507L201.766 142.517C202.439 142.765 203.171 142.803 203.866 142.626C204.561 142.449 205.185 142.065 205.655 141.524C206.126 140.984 206.421 140.314 206.501 139.602C206.581 138.891 206.442 138.171 206.102 137.541C205.763 136.91 205.24 136.397 204.601 136.071C203.963 135.744 203.241 135.62 202.53 135.713C201.819 135.807 201.154 136.115 200.622 136.595C200.09 137.076 199.718 137.707 199.554 138.404V138.404Z" fill="#FFB8B8"/>
<path d="M39.1217 234.948C39.3531 234.956 39.5816 234.893 39.776 234.766C39.9705 234.64 40.1217 234.456 40.209 234.241C40.2963 234.025 40.3155 233.787 40.2641 233.56C40.2127 233.333 40.0931 233.127 39.9216 232.971C39.892 232.857 39.8708 232.776 39.8413 232.662C40.0573 232.094 40.437 231.604 40.9317 231.255C41.4264 230.906 42.0136 230.713 42.6179 230.701C43.2223 230.69 43.8163 230.86 44.3238 231.19C44.8313 231.52 45.2292 231.996 45.4665 232.555C46.8349 235.693 48.5983 238.939 47.7696 242.419C53.3458 230.233 51.2675 215.16 42.7587 204.866C40.4217 203.6 38.5157 201.33 38 198.677C39.1543 199.058 40.5799 198.103 39.7033 196.892C39.3239 196.43 38.9409 195.971 38.5615 195.509C42.8878 190.785 48.165 198.094 43.414 204.459C45.0065 206.428 46.39 208.56 47.5418 210.819C47.258 208.411 47.5464 205.97 48.3835 203.696C49.2336 201.577 50.8476 199.783 52.2665 197.944C53.9916 195.704 57.5952 196.695 57.8569 199.515C56.2505 200.063 56.0633 202.407 57.9097 202.709C57.4766 207.964 54.1122 212.822 49.4373 215.169C51.2181 220.047 51.9447 225.251 51.5687 230.434C52.3404 224.374 58.7858 222.843 63.2778 220.394C63.5634 220.206 63.8972 220.106 64.2386 220.105C64.58 220.105 64.9141 220.204 65.2003 220.391C65.4864 220.579 65.7122 220.845 65.8501 221.16C65.988 221.474 66.0321 221.821 65.9768 222.16C65.3561 222.421 64.7627 222.743 64.2053 223.122C63.9442 223.302 63.7448 223.559 63.6346 223.858C63.5245 224.157 63.5088 224.482 63.5898 224.79C63.6709 225.098 63.8446 225.374 64.0873 225.578C64.3299 225.783 64.6296 225.907 64.9452 225.934C62.7231 231.621 56.8755 235.482 50.8324 235.518C50.2757 238.062 49.4577 240.54 48.3915 242.914L39.4227 243C39.3895 242.9 39.3596 242.797 39.3298 242.697C40.1604 242.741 40.9934 242.684 41.8101 242.524C39.5889 239.93 37.8777 238.612 39.1214 234.948L39.1217 234.948Z" fill="#00627B"/>
<path d="M222.199 238.248C222.033 238.254 221.87 238.209 221.731 238.119C221.592 238.029 221.485 237.897 221.422 237.743C221.36 237.589 221.346 237.419 221.383 237.257C221.419 237.095 221.505 236.948 221.627 236.836C221.649 236.755 221.664 236.697 221.685 236.616C221.53 236.21 221.259 235.86 220.906 235.611C220.553 235.361 220.133 235.223 219.701 235.215C219.27 235.207 218.846 235.329 218.483 235.564C218.12 235.8 217.836 236.14 217.667 236.539C216.689 238.781 215.43 241.1 216.022 243.585C212.039 234.88 213.523 224.114 219.601 216.761C221.27 215.857 222.632 214.235 223 212.341C222.176 212.613 221.157 211.931 221.783 211.066C222.054 210.736 222.328 210.408 222.599 210.078C219.509 206.704 215.739 211.924 219.133 216.47C217.995 217.877 217.007 219.4 216.184 221.013C216.387 219.294 216.181 217.55 215.583 215.926C214.976 214.412 213.823 213.131 212.81 211.817C211.577 210.217 209.003 210.925 208.816 212.939C209.964 213.331 210.098 215.005 208.779 215.221C209.088 218.974 211.491 222.444 214.83 224.121C213.559 227.605 213.04 231.322 213.308 235.024C212.757 230.695 208.153 229.602 204.944 227.853C204.74 227.719 204.502 227.647 204.258 227.647C204.014 227.646 203.776 227.717 203.571 227.851C203.367 227.985 203.206 228.175 203.107 228.4C203.009 228.624 202.977 228.872 203.017 229.114C203.46 229.301 203.884 229.531 204.282 229.801C204.468 229.93 204.611 230.114 204.69 230.327C204.768 230.541 204.779 230.773 204.722 230.993C204.664 231.213 204.54 231.41 204.366 231.556C204.193 231.702 203.979 231.791 203.753 231.81C205.341 235.872 209.518 238.63 213.834 238.656C214.232 240.473 214.816 242.243 215.577 243.939L221.984 244C222.007 243.929 222.029 243.855 222.05 243.784C221.457 243.815 220.862 243.774 220.279 243.66C221.865 241.807 223.087 240.865 222.199 238.248L222.199 238.248Z" fill="#00627B" fill-opacity="0.7"/>
<path d="M166.642 143.512L178.021 151.612L183.11 145.239L172.049 136.375C171.573 135.994 171.024 135.713 170.436 135.551C169.847 135.389 169.232 135.349 168.628 135.432C168.024 135.516 167.443 135.722 166.921 136.038C166.399 136.353 165.947 136.772 165.593 137.268V137.268C164.903 138.235 164.626 139.436 164.823 140.607C165.019 141.778 165.674 142.823 166.642 143.512Z" fill="#00627B"/>
<path d="M164.291 141.782L159 154.698L166.376 158.188L172.485 145.405C172.748 144.855 172.895 144.257 172.919 143.648C172.942 143.04 172.841 142.432 172.621 141.864C172.401 141.295 172.067 140.778 171.64 140.343C171.213 139.907 170.702 139.564 170.137 139.333V139.333C169.592 139.111 169.009 138.997 168.42 139C167.831 139.003 167.249 139.121 166.706 139.348C166.163 139.576 165.671 139.908 165.256 140.325C164.842 140.743 164.514 141.238 164.291 141.782V141.782Z" fill="#00627B"/>
<circle cx="264" cy="214" r="15" fill="#00627B" fill-opacity="0.25"/>
<path d="M329.292 147.412C329.24 147.412 329.207 147.411 329.196 147.41L322.997 147.411V146.494H329.218C329.362 146.499 332.301 146.582 335.009 143.286C339.044 138.373 342.358 126.211 335.229 96.1713C325.643 55.7785 333.638 20.0937 337.52 6.62625C337.712 5.95996 337.746 5.25817 337.62 4.57633C337.495 3.89449 337.213 3.25129 336.797 2.69754C336.381 2.14379 335.842 1.69466 335.224 1.38564C334.605 1.07663 333.923 0.9162 333.232 0.917024H240.655C239.951 0.917971 239.257 1.08541 238.63 1.40575C238.003 1.72608 237.46 2.1903 237.045 2.7607C235.4 5.03042 233.143 9.39076 231.731 17.275L230.832 17.1129C232.274 9.05739 234.605 4.56877 236.305 2.22159C236.805 1.53428 237.46 0.974914 238.215 0.588911C238.971 0.202907 239.807 0.00114206 240.655 2.49523e-06H333.232C334.065 -0.00080152 334.887 0.192708 335.632 0.565242C336.378 0.937777 337.026 1.47913 337.528 2.14653C338.029 2.81393 338.368 3.58909 338.519 4.41078C338.67 5.23246 338.629 6.07815 338.398 6.88103C334.536 20.2786 326.583 55.7783 336.118 95.9591C343.347 126.421 339.872 138.847 335.684 143.906C332.921 147.243 329.877 147.412 329.292 147.412Z" fill="#DFDDDD"/>
<path d="M312.498 164.206C312.446 164.206 312.414 164.205 312.402 164.204L306.203 164.205V163.288H312.425C312.57 163.292 315.508 163.376 318.215 160.08C322.25 155.167 325.564 143.005 318.435 112.965C308.85 72.5723 316.845 36.8875 320.727 23.4201C320.918 22.7538 320.952 22.052 320.827 21.3701C320.701 20.6883 320.419 20.0451 320.003 19.4913C319.587 18.9376 319.049 18.4885 318.43 18.1795C317.812 17.8704 317.13 17.71 316.439 17.7108H223.861C223.158 17.7118 222.464 17.8792 221.837 18.1996C221.209 18.5199 220.666 18.9841 220.251 19.5545C218.607 21.8242 216.35 26.1846 214.938 34.0688L214.038 33.9067C215.481 25.8512 217.811 21.3626 219.512 19.0154C220.012 18.3281 220.666 17.7687 221.422 17.3827C222.178 16.9967 223.013 16.795 223.861 16.7938H316.439C317.271 16.793 318.093 16.9865 318.839 17.3591C319.584 17.7316 320.233 18.2729 320.734 18.9403C321.235 19.6077 321.574 20.3829 321.726 21.2046C321.877 22.0263 321.835 22.872 321.605 23.6748C317.743 37.0724 309.789 72.5721 319.325 112.753C326.554 143.215 323.078 155.641 318.89 160.7C316.128 164.037 313.084 164.206 312.498 164.206Z" fill="#BFBFC0"/>
<path d="M295.71 181C295.658 181 295.625 180.999 295.614 180.998L204.51 180.999C203.633 181 202.769 180.785 201.994 180.373C201.219 179.961 200.556 179.365 200.063 178.637C199.571 177.908 199.263 177.069 199.168 176.194C199.073 175.319 199.194 174.434 199.519 173.616C202.824 165.326 207.275 145.436 199.944 105.371C191.288 58.062 199.037 40.9643 202.771 35.8092C203.271 35.1219 203.925 34.5625 204.68 34.1765C205.435 33.7905 206.271 33.5888 207.118 33.5876H299.648C300.481 33.5868 301.302 33.7803 302.047 34.1529C302.792 34.5254 303.441 35.0668 303.941 35.7342C304.442 36.4016 304.782 37.1767 304.933 37.9984C305.084 38.8201 305.042 39.6658 304.812 40.4687C300.952 53.8662 293.002 89.3659 302.533 129.547C309.758 160.009 306.285 172.434 302.099 177.494C299.337 180.831 296.295 181 295.71 181ZM207.118 34.5047C206.415 34.5056 205.722 34.673 205.095 34.9934C204.468 35.3137 203.925 35.7779 203.51 36.3483C199.846 41.4078 192.25 58.2456 200.843 105.206C207.846 143.479 204.449 163.718 200.367 173.956C200.091 174.632 199.988 175.366 200.066 176.091C200.144 176.817 200.401 177.511 200.813 178.113C201.222 178.719 201.773 179.216 202.417 179.56C203.062 179.903 203.781 180.082 204.51 180.082H295.636C295.78 180.089 298.718 180.17 301.424 176.874C305.457 171.961 308.769 159.799 301.644 129.759C292.063 89.3661 300.054 53.6813 303.934 40.2139C304.125 39.5476 304.16 38.8458 304.034 38.164C303.909 37.4821 303.627 36.8389 303.211 36.2852C302.796 35.7314 302.257 35.2823 301.639 34.9733C301.021 34.6643 300.339 34.5038 299.648 34.5047H207.118Z" fill="black"/>
<path d="M284.387 74.6392H211.486C210.513 74.6392 209.58 74.246 208.892 73.5461C208.204 72.8462 207.818 71.897 207.818 70.9072C207.818 69.9174 208.204 68.9682 208.892 68.2683C209.58 67.5684 210.513 67.1753 211.486 67.1753H284.387C285.36 67.1753 286.293 67.5684 286.981 68.2683C287.668 68.9682 288.055 69.9174 288.055 70.9072C288.055 71.897 287.668 72.8462 286.981 73.5461C286.293 74.246 285.36 74.6392 284.387 74.6392Z" fill="#00627B" fill-opacity="0.7"/>
<path d="M284.387 90.189H211.486C210.513 90.189 209.58 89.7958 208.892 89.0959C208.204 88.3961 207.818 87.4468 207.818 86.457C207.818 85.4673 208.204 84.518 208.892 83.8181C209.58 83.1183 210.513 82.7251 211.486 82.7251H284.387C285.36 82.7251 286.293 83.1183 286.981 83.8181C287.668 84.518 288.055 85.4673 288.055 86.457C288.055 87.4468 287.668 88.3961 286.981 89.0959C286.293 89.7958 285.36 90.189 284.387 90.189Z" fill="#00627B" fill-opacity="0.25"/>
<path d="M284.387 105.739H211.486C210.513 105.739 209.58 105.346 208.892 104.646C208.204 103.946 207.818 102.997 207.818 102.007C207.818 101.017 208.204 100.068 208.892 99.368C209.58 98.6681 210.513 98.2749 211.486 98.2749H284.387C285.36 98.2749 286.293 98.6681 286.981 99.368C287.668 100.068 288.055 101.017 288.055 102.007C288.055 102.997 287.668 103.946 286.981 104.646C286.293 105.346 285.36 105.739 284.387 105.739Z" fill="#00627B" fill-opacity="0.25"/>
<path d="M289.391 121.289H217.055C216.09 121.289 215.164 120.895 214.482 120.196C213.799 119.496 213.416 118.546 213.416 117.557C213.416 116.567 213.799 115.618 214.482 114.918C215.164 114.218 216.09 113.825 217.055 113.825H289.391C290.357 113.825 291.282 114.218 291.965 114.918C292.647 115.618 293.031 116.567 293.031 117.557C293.031 118.546 292.647 119.496 291.965 120.196C291.282 120.895 290.357 121.289 289.391 121.289Z" fill="#00627B" fill-opacity="0.25"/>
<path d="M289.391 136.838H217.055C216.09 136.838 215.164 136.445 214.482 135.745C213.799 135.046 213.416 134.096 213.416 133.107C213.416 132.117 213.799 131.168 214.482 130.468C215.164 129.768 216.09 129.375 217.055 129.375H289.391C290.357 129.375 291.282 129.768 291.965 130.468C292.647 131.168 293.031 132.117 293.031 133.107C293.031 134.096 292.647 135.046 291.965 135.745C291.282 136.445 290.357 136.838 289.391 136.838Z" fill="#00627B" fill-opacity="0.25"/>
<path d="M245.828 59.0893H211.481C210.51 59.0893 209.578 58.6962 208.891 57.9963C208.204 57.2964 207.818 56.3472 207.818 55.3574C207.818 54.3676 208.204 53.4184 208.891 52.7185C209.578 52.0186 210.51 51.6254 211.481 51.6254H245.828C246.799 51.6254 247.731 52.0186 248.418 52.7185C249.105 53.4184 249.491 54.3676 249.491 55.3574C249.491 56.3472 249.105 57.2964 248.418 57.9963C247.731 58.6962 246.799 59.0893 245.828 59.0893Z" fill="#00627B"/>
<path d="M241.507 161.836C242.246 158.776 245.719 157.773 248.558 157.885C250.352 158.003 252.131 158.278 253.875 158.707C255.699 159.106 257.505 159.579 259.303 160.08C262.599 160.999 265.861 162.111 269.212 162.829C272.001 163.427 275.032 163.778 277.814 162.952C280.488 162.159 282.756 160.21 283.483 157.515C284.169 154.976 283.228 152.2 280.711 151.039C278.416 149.981 275.518 150.519 274.38 152.912C273.098 155.611 274.379 158.553 276.41 160.506C277.564 161.565 278.828 162.504 280.182 163.307C281.556 164.222 283.085 164.892 284.698 165.285C287.347 165.838 290.503 165.023 291.869 162.548C292.173 161.988 292.355 161.373 292.405 160.741C292.486 159.881 291.112 159.886 291.032 160.741C290.8 163.205 287.849 164.359 285.642 164.089C284.152 163.847 282.73 163.307 281.464 162.503C280.242 161.806 279.084 161.008 278.003 160.115C276.131 158.532 274.376 155.925 275.634 153.454C276.657 151.441 279.326 151.461 280.949 152.759C282.914 154.331 282.564 157.184 281.267 159.05C279.832 161.117 277.23 161.983 274.777 162.077C272.112 162.178 269.469 161.58 266.921 160.873C263.756 159.994 260.622 159.011 257.442 158.183C255.636 157.714 253.817 157.29 251.978 156.96C250.24 156.585 248.455 156.465 246.681 156.601C243.814 156.925 240.888 158.556 240.183 161.479C239.98 162.319 241.304 162.678 241.507 161.836L241.507 161.836Z" fill="black"/>
<path d="M168.373 26C163.041 26.0075 158.994 21.9125 159 16.6269C159 16.2812 159.28 16 159.625 16H161.275C161.584 16 161.848 16.2275 161.893 16.5337C162.002 17.2682 162.216 17.9832 162.528 18.6569L162.592 18.7956C162.635 18.889 162.644 18.9945 162.618 19.094C162.592 19.1935 162.532 19.2807 162.448 19.3406C161.937 19.7056 161.742 20.44 162.14 21.0125C162.641 21.7333 163.267 22.3591 163.988 22.8606C164.561 23.2581 165.295 23.0631 165.659 22.5525C165.719 22.4686 165.806 22.4082 165.906 22.3818C166.006 22.3555 166.111 22.3648 166.205 22.4081L166.343 22.4719C167.017 22.7844 167.732 22.9981 168.466 23.1069C168.773 23.1525 169 23.4156 169 23.7256V25.375C169 25.4571 168.984 25.5384 168.952 25.6143C168.921 25.6902 168.875 25.7591 168.817 25.8172C168.759 25.8752 168.69 25.9212 168.614 25.9526C168.538 25.984 168.457 26.0001 168.374 26H168.373Z" fill="#00627B"/>
<circle cx="164" cy="21" r="14" stroke="#00627B" stroke-width="2"/>
</svg>
