<?xml version="1.0" standalone="no"?>
<!DOCTYPE svg PUBLIC "-//W3C//DTD SVG 20010904//EN"
 "http://www.w3.org/TR/2001/REC-SVG-20010904/DTD/svg10.dtd">
<svg version="1.0" xmlns="http://www.w3.org/2000/svg"
 width="64.000000pt" height="64.000000pt" viewBox="0 0 64.000000 64.000000"
 preserveAspectRatio="xMidYMid meet">

<g transform="translate(0.000000,64.000000) scale(0.100000,-0.100000)"
fill="#000000" stroke="none">
<path d="M293 610 c-4 -15 -14 -20 -38 -20 -28 0 -35 -6 -59 -50 -17 -32 -25
-58 -21 -70 15 -46 86 -50 106 -6 9 18 7 32 -10 65 l-21 41 30 0 30 0 0 -84 0
-85 -27 -3 c-22 -2 -29 -9 -31 -30 l-3 -28 71 0 71 0 -3 28 c-2 21 -9 28 -30
30 l-28 3 0 85 0 84 30 0 30 0 -20 -41 c-12 -23 -18 -48 -15 -60 15 -45 86
-49 106 -5 9 20 7 33 -16 75 -25 45 -32 51 -60 51 -24 0 -34 5 -38 20 -3 12
-14 20 -27 20 -13 0 -24 -8 -27 -20z m37 -10 c0 -5 -4 -10 -10 -10 -5 0 -10 5
-10 10 0 6 5 10 10 10 6 0 10 -4 10 -10z m-82 -75 c11 -24 10 -25 -18 -25 -28
0 -29 1 -18 25 6 14 14 25 18 25 4 0 12 -11 18 -25z m180 0 c11 -24 10 -25
-18 -25 -28 0 -29 1 -18 25 6 14 14 25 18 25 4 0 12 -11 18 -25z m-168 -60
c-7 -8 -20 -15 -30 -15 -10 0 -23 7 -30 15 -11 13 -7 15 30 15 37 0 41 -2 30
-15z m180 0 c-7 -8 -20 -15 -30 -15 -10 0 -23 7 -30 15 -11 13 -7 15 30 15 37
0 41 -2 30 -15z m-70 -95 c0 -5 -22 -10 -50 -10 -27 0 -50 5 -50 10 0 6 23 10
50 10 28 0 50 -4 50 -10z"/>
<path d="M60 384 l0 -106 45 -57 c37 -47 45 -65 45 -99 0 -23 -4 -42 -10 -42
-5 0 -10 -16 -10 -35 l0 -35 90 0 90 0 0 35 c0 19 -4 35 -10 35 -6 0 -10 29
-10 66 0 36 -5 75 -11 87 -19 37 -102 117 -121 117 -15 0 -18 9 -18 54 0 61
-16 86 -56 86 -24 0 -24 0 -24 -106z m56 -2 c0 -76 3 -85 27 -109 33 -34 49
-22 17 12 -19 20 -21 28 -11 38 10 9 23 0 67 -45 l54 -56 0 -71 0 -71 -50 0
-50 0 0 46 c0 39 -7 54 -45 103 l-45 57 0 93 c0 83 2 92 18 89 14 -3 17 -16
18 -86z m174 -337 c0 -12 -14 -15 -70 -15 -56 0 -70 3 -70 15 0 12 14 15 70
15 56 0 70 -3 70 -15z"/>
<path d="M516 474 c-11 -10 -16 -34 -16 -70 0 -45 -3 -54 -18 -54 -19 0 -102
-80 -121 -117 -6 -12 -11 -51 -11 -87 0 -37 -4 -66 -10 -66 -5 0 -10 -16 -10
-35 l0 -35 90 0 90 0 0 35 c0 19 -4 35 -10 35 -5 0 -10 19 -10 42 0 34 8 52
45 99 l45 57 0 106 c0 106 0 106 -24 106 -14 0 -32 -7 -40 -16z m44 -96 l0
-92 -45 -57 c-38 -49 -45 -64 -45 -103 l0 -46 -50 0 -50 0 0 71 0 71 54 56
c44 45 57 54 67 45 10 -10 8 -18 -11 -38 -32 -34 -16 -46 18 -12 25 25 26 32
23 102 -3 78 1 95 25 95 11 0 14 -19 14 -92z m-70 -333 c0 -12 -14 -15 -70
-15 -56 0 -70 3 -70 15 0 12 14 15 70 15 56 0 70 -3 70 -15z"/>
</g>
</svg>
