<svg width="30" height="30" viewBox="0 0 30 30" fill="none" xmlns="http://www.w3.org/2000/svg">
<path d="M21.5 12L15.5 15.75L9.5 12V10.5L15.5 14.25L21.5 10.5M21.5 9H9.5C8.6675 9 8 9.6675 8 10.5V19.5C8 19.8978 8.15804 20.2794 8.43934 20.5607C8.72064 20.842 9.10218 21 9.5 21H21.5C21.8978 21 22.2794 20.842 22.5607 20.5607C22.842 20.2794 23 19.8978 23 19.5V10.5C23 10.1022 22.842 9.72064 22.5607 9.43934C22.2794 9.15804 21.8978 9 21.5 9V9Z" fill="#00627B"/>
<circle cx="15" cy="15" r="14.5" stroke="#00627B"/>
</svg>
