<svg width="30" height="30" viewBox="0 0 30 30" fill="none" xmlns="http://www.w3.org/2000/svg">
<path d="M22.0597 23C14.0619 23.0112 7.99157 16.8687 8.00001 8.94031C8.00001 8.42187 8.42001 8 8.93751 8H11.4125C11.8766 8 12.2713 8.34125 12.3397 8.80062C12.5029 9.90224 12.8234 10.9747 13.2913 11.9853L13.3878 12.1934C13.4527 12.3335 13.4666 12.4918 13.4273 12.641C13.3879 12.7903 13.2977 12.9211 13.1722 13.0109C12.4053 13.5584 12.1128 14.66 12.71 15.5187C13.4619 16.6 14.4003 17.5387 15.4813 18.2909C16.3409 18.8872 17.4425 18.5947 17.9891 17.8287C18.0788 17.7029 18.2097 17.6123 18.3592 17.5728C18.5087 17.5332 18.6672 17.5472 18.8075 17.6122L19.0147 17.7078C20.0253 18.1766 21.0978 18.4972 22.1994 18.6603C22.6588 18.7287 23 19.1234 23 19.5884V22.0625C23 22.1857 22.9757 22.3077 22.9285 22.4215C22.8814 22.5353 22.8122 22.6387 22.7251 22.7257C22.6379 22.8128 22.5345 22.8818 22.4206 22.9289C22.3068 22.9759 22.1848 23.0001 22.0616 23H22.0597Z" fill="#00627B"/>
<circle cx="15" cy="15" r="14.5" stroke="#00627B"/>
</svg>
