<?xml version="1.0" standalone="no"?>
<!DOCTYPE svg PUBLIC "-//W3C//DTD SVG 20010904//EN"
 "http://www.w3.org/TR/2001/REC-SVG-20010904/DTD/svg10.dtd">
<svg version="1.0" xmlns="http://www.w3.org/2000/svg"
 width="100.000000pt" height="100.000000pt" viewBox="0 0 100.000000 100.000000"
 preserveAspectRatio="xMidYMid meet">

<g transform="translate(0.000000,100.000000) scale(0.100000,-0.100000)"
fill="#000000" stroke="none">
<path d="M365 950 c-92 -45 -207 -89 -279 -105 l-29 -6 6 -98 c19 -279 141
-525 335 -672 36 -27 76 -52 89 -56 56 -13 241 161 322 302 75 130 131 332
131 471 0 50 -2 54 -27 60 -72 16 -168 51 -269 100 -68 33 -125 54 -145 54
-20 0 -75 -21 -134 -50z m273 -45 c62 -30 146 -65 187 -77 86 -25 83 -18 64
-154 -12 -91 -50 -217 -87 -289 -58 -117 -165 -243 -261 -309 l-41 -29 -55 38
c-121 83 -228 226 -285 383 -30 82 -60 234 -60 302 l0 36 75 22 c41 12 125 47
187 77 61 30 124 55 138 55 14 0 77 -25 138 -55z"/>
<path d="M567 573 l-87 -135 -56 51 c-58 53 -68 58 -79 40 -8 -12 11 -35 87
-101 l57 -50 57 88 c151 234 143 220 125 231 -15 9 -30 -9 -104 -124z"/>
</g>
</svg>
